<svg width="2617" height="237" viewBox="0 0 2617 237" fill="none" xmlns="http://www.w3.org/2000/svg">
<path d="M1.03894 8.75656L387.79 9.16182C392.746 9.16182 397.702 9.04024 402.647 8.84775C422.077 8.09803 493.464 10.2661 503.916 81.3375C506.898 101.61 514.931 121.002 527.91 137.293C544.762 158.437 569.18 173.371 594.903 136.28C640.004 71.2466 683.629 -48.0802 760.014 59.9299C776.653 83.4549 797.835 103.839 822.974 119.006C869.465 147.049 940.947 165.914 1014.35 92.5731C1082.4 24.5817 1084.5 9.16182 1168.48 9.16182H2616.5" stroke="#2B386F" stroke-width="17" stroke-miterlimit="10"/>
<path d="M1.03894 24.4702L373.209 26.2838C378.027 26.3952 382.845 26.1622 387.631 25.5442C408.483 22.8594 478.925 19.4552 491.596 93.5254C495.172 114.447 512.406 139.4 525.851 156.279C543.297 178.173 574.666 189.378 601.302 150.98C648.005 83.6474 678.663 -34.6461 757.753 77.1836C774.987 101.549 801.612 122.461 827.643 138.164C875.779 167.201 951.134 175.65 1027.14 99.7157C1097.6 29.3231 1081 25.4732 1168.5 25.4732H2616.5" stroke="#51B3E5" stroke-width="17.6017" stroke-miterlimit="10"/>
<path d="M1.03894 41.0958L373.209 42.9093C378.027 43.0207 382.845 42.7877 387.631 42.1697C408.483 39.4849 478.925 36.0807 491.596 110.151C495.172 131.072 512.406 156.026 525.851 172.904C543.297 194.798 574.666 206.004 601.302 167.606C648.005 100.273 678.663 -18.0206 757.753 93.8091C774.987 118.175 801.612 139.086 827.643 154.79C875.779 183.826 951.134 192.276 1027.14 116.341C1097.6 45.9487 1081 42.0988 1168.5 42.0988H2616.5" stroke="#E49FC6" stroke-width="17.6017" stroke-miterlimit="10"/>
<path d="M1.03894 58.9168L373.209 60.7303C378.027 60.8417 382.845 60.6087 387.631 59.9907C408.483 57.3059 478.925 53.9018 491.596 127.972C495.172 148.893 512.406 173.847 525.851 190.725C543.297 212.619 574.666 223.825 601.302 185.427C648.005 118.094 678.663 -0.199558 757.753 111.63C774.987 135.996 801.612 156.907 827.643 172.611C875.779 201.647 951.134 210.097 1027.14 134.162C1105 56.2989 1081 58.9198 1168.5 58.9198L2616.5 58.9198" stroke="#E99A4B" stroke-width="17.6017" stroke-miterlimit="10"/>
<path d="M1.03894 76.0489L373.209 77.8624C378.027 77.9738 382.845 77.7408 387.631 77.1228C408.483 74.438 478.925 71.0339 491.596 145.104C495.172 166.025 512.406 190.979 525.851 207.858C543.297 229.751 574.666 240.957 601.302 202.559C648.005 135.226 678.663 16.9325 757.753 128.762C774.987 153.128 801.612 174.039 827.643 189.743C875.779 218.779 951.134 227.229 1027.14 151.294C1102 76.4311 1081.5 76.0519 1168.5 76.0519H2616.5" stroke="#B91B58" stroke-width="17.6017" stroke-miterlimit="10"/>
</svg>
